# xmcd
#
# Track frame offsets:
#	150
#	16307
#	29815
#	46537
#	54585
#	68837
#	82902
#	93170
#	110797
#	123880
#	137490
#
# Disc length: 2058 seconds
#
# Revision: 2
# Processed by: cddbd v1.4PL0 Copyright (c) Steve Scherf et al.
# Submitted via: dBpowerAMP V4.0
#
DISCID=8708080b
DTITLE=Eager Beaver - Persuader
DYEAR=1900
DGENRE=blues
TTITLE0=Dream girl
TTITLE1=It feels good
TTITLE2=She don´t love me
TTITLE3=Money spending baby
TTITLE4=She left me
TTITLE5=Web of sin
TTITLE6=For love
TTITLE7=When I hold you
TTITLE8=Phantom mover
TTITLE9=I need someone
TTITLE10=Twilight
EXTD=Eager Beaver , Persuader\nP A , Guitars , Vocals\nThomas Stilton , Guitars , Vocals\nAnna Palmer , Bass\nTommy Sjostrom, Drums , Percussion\nAdditional musicians , Gypie Mayo, Mick Green, JC Concato, Antlantic Soul Machine Horns\nRecorded by J C Co
EXTD=ncato and Nick Wollage at Falconer Studios, London 1993\nMixed in Greenhouse Studios by Jessica Corcoran and Finn Steele\nProduced by Peter Gunn\nPublished by Kommunikation Musik except track 3 and 11 (Copyright Control]\nMighty Moose Records MM340
EXTD=GTS\nDistributed by MD, Sweden\n\n
EXTT0=
EXTT1=
EXTT2=
EXTT3=
EXTT4=
EXTT5=
EXTT6=
EXTT7=
EXTT8=
EXTT9=
EXTT10=
PLAYORDER=
